<?xml version="1.0" encoding="iso-8859-1"?>
<!-- Uploaded to: SVG Repo, www.svgrepo.com, Generator: SVG Repo Mixer Tools -->
<svg height="800px" width="800px" version="1.1" id="Layer_1" xmlns="http://www.w3.org/2000/svg" xmlns:xlink="http://www.w3.org/1999/xlink" 
	 viewBox="0 0 511.964 511.964" xml:space="preserve">
<g>
	<path style="fill:#F3D55B;" d="M107.004,481.433L91.106,147.488h277.695l-15.907,333.946
		c-0.816,17.087-14.909,30.529-32.013,30.529H139.017C121.913,511.962,107.82,498.52,107.004,481.433"/>
	<path style="fill:#FFFFFF;" d="M290.695,268.978c0-33.549-27.197-60.746-60.746-60.746s-60.746,27.197-60.746,60.746
		s27.197,60.746,60.746,60.746S290.695,302.527,290.695,268.978"/>
	<g>
		<path style="fill:#F3D55B;" d="M229.949,303.69c-19.144,0-34.712-15.568-34.712-34.712c0-4.79,3.879-8.678,8.678-8.678
			s8.678,3.888,8.678,8.678c0,9.572,7.784,17.356,17.356,17.356c4.799,0,8.678,3.888,8.678,8.678S234.748,303.69,229.949,303.69"/>
		<path style="fill:#F3D55B;" d="M255.983,277.656c-4.799,0-8.678-3.888-8.678-8.678c0-9.572-7.784-17.356-17.356-17.356
			c-4.799,0-8.678-3.888-8.678-8.678s3.879-8.678,8.678-8.678c19.144,0,34.712,15.568,34.712,34.712
			C264.661,273.769,260.782,277.656,255.983,277.656"/>
	</g>
	<g>
		<path style="fill:#B7A144;" d="M203.915,147.487v66.673c7.897-3.758,16.705-5.927,26.034-5.927c9.329,0,18.137,2.169,26.034,5.927
			v-66.673H203.915z"/>
		<path style="fill:#B7A144;" d="M203.915,323.8v188.164h52.068V323.8c-7.897,3.758-16.705,5.927-26.034,5.927
			C220.62,329.727,211.812,327.557,203.915,323.8"/>
	</g>
	<path style="fill:#EBECEC;" d="M316.737,121.453c-0.564,0-1.137-0.052-1.71-0.174c-4.695-0.937-7.749-5.502-6.804-10.205
		l17.122-85.652c2.36-11.759,11.004-21.061,22.563-24.255c11.55-3.211,23.743,0.312,31.822,9.19l56.233,61.865
		c3.22,3.549,2.959,9.042-0.581,12.262c-3.532,3.228-9.034,2.968-12.262-0.581l-56.242-61.865c-3.688-4.07-9.051-5.623-14.336-4.148
		c-5.294,1.467-9.103,5.554-10.179,10.943l-17.13,85.643C324.417,118.598,320.79,121.453,316.737,121.453"/>
	<polygon style="fill:#E64C3C;" points="73.746,147.487 386.153,147.487 386.153,112.775 73.746,112.775 	"/>
	<g>
		<path style="fill:#B7A144;" d="M325.407,147.487l-17.356,364.475h12.826c17.113,0,31.206-13.442,32.022-30.529l15.898-333.945
			H325.407z"/>
		<path style="fill:#B7A144;" d="M107.004,481.433L91.106,147.488h43.39l17.356,364.475h-12.835
			C121.913,511.962,107.82,498.52,107.004,481.433"/>
	</g>
</g>
</svg>